<?xml version="1.0" encoding="UTF-8" standalone="no"?>
<!DOCTYPE svg PUBLIC "-//W3C//DTD SVG 1.1//EN"
 "http://www.w3.org/Graphics/SVG/1.1/DTD/svg11.dtd">
<!-- Generated by graphviz version 7.0.0 (20221023.0053)
 -->
<!-- Title: GraphOfConvexSets Pages: 1 -->
<svg width="1146pt" height="1773pt"
 viewBox="0.00 0.00 1146.00 1772.92" xmlns="http://www.w3.org/2000/svg" xmlns:xlink="http://www.w3.org/1999/xlink">
<g id="graph0" class="graph" transform="scale(1 1) rotate(0) translate(4 1768.92)">
<title>GraphOfConvexSets</title>
<polygon fill="white" stroke="none" points="-4,4 -4,-1768.92 1142,-1768.92 1142,4 -4,4"/>
<!-- v2 -->
<g id="node1" class="node">
<title>v2</title>
<ellipse fill="none" stroke="black" cx="888" cy="-1738.05" rx="67.35" ry="26.74"/>
<text text-anchor="middle" x="888" y="-1741.85" font-family="Times,serif" font-size="14.00">r0</text>
<text text-anchor="middle" x="888" y="-1726.85" font-family="Times,serif" font-size="14.00"> x = [nan nan]</text>
</g>
<!-- v5 -->
<g id="node4" class="node">
<title>v5</title>
<ellipse fill="none" stroke="black" cx="814" cy="-1573.31" rx="67.35" ry="26.74"/>
<text text-anchor="middle" x="814" y="-1577.11" font-family="Times,serif" font-size="14.00">r3</text>
<text text-anchor="middle" x="814" y="-1562.11" font-family="Times,serif" font-size="14.00"> x = [nan nan]</text>
</g>
<!-- v2&#45;&gt;v5 -->
<g id="edge1" class="edge">
<title>v2&#45;&gt;v5</title>
<path fill="none" stroke="black" d="M822.59,-1730.89C798.25,-1725.05 772.93,-1713.98 758,-1693.18 738.56,-1666.1 743.41,-1648.15 758,-1618.18 760.57,-1612.9 764.12,-1608.07 768.19,-1603.71"/>
<polygon fill="black" stroke="black" points="770.53,-1606.31 775.44,-1596.92 765.75,-1601.2 770.53,-1606.31"/>
<text text-anchor="middle" x="812" y="-1681.98" font-family="Times,serif" font-size="14.00">r0 &#45;&gt; r3</text>
<text text-anchor="middle" x="812" y="-1666.98" font-family="Times,serif" font-size="14.00">cost = &#45;0.00,</text>
<text text-anchor="middle" x="812" y="-1651.98" font-family="Times,serif" font-size="14.00">ϕ = &#45;0.00,</text>
<text text-anchor="middle" x="812" y="-1636.98" font-family="Times,serif" font-size="14.00">ϕ xᵤ = [0.00 0.00],</text>
<text text-anchor="middle" x="812" y="-1621.98" font-family="Times,serif" font-size="14.00">ϕ xᵥ = [&#45;0.00 &#45;0.00]</text>
</g>
<!-- v51 -->
<g id="node16" class="node">
<title>v51</title>
<ellipse fill="none" stroke="black" cx="1023" cy="-1573.31" rx="67.35" ry="26.74"/>
<text text-anchor="middle" x="1023" y="-1577.11" font-family="Times,serif" font-size="14.00">t0</text>
<text text-anchor="middle" x="1023" y="-1562.11" font-family="Times,serif" font-size="14.00"> x = [nan nan]</text>
</g>
<!-- v2&#45;&gt;v51 -->
<g id="edge35" class="edge">
<title>v2&#45;&gt;v51</title>
<path fill="none" stroke="black" d="M938.42,-1720.02C966.44,-1710.11 996.55,-1698.55 1001,-1693.18 1019.61,-1670.72 1024.49,-1637.61 1025.08,-1612.03"/>
<polygon fill="black" stroke="black" points="1028.58,-1612.03 1025.07,-1602.03 1021.58,-1612.04 1028.58,-1612.03"/>
<text text-anchor="middle" x="1080" y="-1681.98" font-family="Times,serif" font-size="14.00">r0 &#45;&gt; t0</text>
<text text-anchor="middle" x="1080" y="-1666.98" font-family="Times,serif" font-size="14.00">cost = &#45;0.00,</text>
<text text-anchor="middle" x="1080" y="-1651.98" font-family="Times,serif" font-size="14.00">ϕ = &#45;0.00,</text>
<text text-anchor="middle" x="1080" y="-1636.98" font-family="Times,serif" font-size="14.00">ϕ xᵤ = [&#45;0.00 &#45;0.00],</text>
<text text-anchor="middle" x="1080" y="-1621.98" font-family="Times,serif" font-size="14.00">ϕ xᵥ = [&#45;0.00 &#45;0.00]</text>
</g>
<!-- v3 -->
<g id="node2" class="node">
<title>v3</title>
<ellipse fill="none" stroke="black" cx="547" cy="-1233.2" rx="73.58" ry="26.74"/>
<text text-anchor="middle" x="547" y="-1237" font-family="Times,serif" font-size="14.00">r1</text>
<text text-anchor="middle" x="547" y="-1222" font-family="Times,serif" font-size="14.00"> x = [1.00 1.00]</text>
</g>
<!-- v9 -->
<g id="node8" class="node">
<title>v9</title>
<ellipse fill="none" stroke="black" cx="345" cy="-1047.2" rx="73.58" ry="26.74"/>
<text text-anchor="middle" x="345" y="-1051" font-family="Times,serif" font-size="14.00">r8</text>
<text text-anchor="middle" x="345" y="-1036" font-family="Times,serif" font-size="14.00"> x = [4.00 3.00]</text>
</g>
<!-- v3&#45;&gt;v9 -->
<g id="edge2" class="edge">
<title>v3&#45;&gt;v9</title>
<path fill="none" stroke="black" d="M478.53,-1223.04C425.65,-1214.39 358.75,-1199.49 342,-1177.7 322,-1151.69 325.77,-1113.26 332.71,-1085.02"/>
<polygon fill="black" stroke="black" points="336.07,-1086.02 335.31,-1075.45 329.32,-1084.18 336.07,-1086.02"/>
<text text-anchor="middle" x="398" y="-1166.5" font-family="Times,serif" font-size="14.00">r1 &#45;&gt; r8</text>
<text text-anchor="middle" x="398" y="-1151.5" font-family="Times,serif" font-size="14.00">cost = &#45;0.00,</text>
<text text-anchor="middle" x="398" y="-1136.5" font-family="Times,serif" font-size="14.00">ϕ = &#45;0.00,</text>
<text text-anchor="middle" x="398" y="-1121.5" font-family="Times,serif" font-size="14.00">ϕ xᵤ = [ 0.00 &#45;0.00],</text>
<text text-anchor="middle" x="398" y="-1106.5" font-family="Times,serif" font-size="14.00">ϕ xᵥ = [&#45;0.00 &#45;0.00]</text>
</g>
<!-- v10 -->
<g id="node9" class="node">
<title>v10</title>
<ellipse fill="none" stroke="black" cx="675" cy="-871.83" rx="73.58" ry="26.74"/>
<text text-anchor="middle" x="675" y="-875.63" font-family="Times,serif" font-size="14.00">r9</text>
<text text-anchor="middle" x="675" y="-860.63" font-family="Times,serif" font-size="14.00"> x = [3.00 2.33]</text>
</g>
<!-- v3&#45;&gt;v10 -->
<g id="edge3" class="edge">
<title>v3&#45;&gt;v10</title>
<path fill="none" stroke="black" d="M587.9,-1210.74C629.12,-1186.46 690.1,-1142.65 715,-1084.7 740.13,-1026.2 714.21,-951.91 693.98,-908.64"/>
<polygon fill="black" stroke="black" points="697.16,-907.17 689.66,-899.69 690.86,-910.22 697.16,-907.17"/>
<text text-anchor="middle" x="777.5" y="-1073.5" font-family="Times,serif" font-size="14.00">r1 &#45;&gt; r9</text>
<text text-anchor="middle" x="777.5" y="-1058.5" font-family="Times,serif" font-size="14.00">cost = 2.40,</text>
<text text-anchor="middle" x="777.5" y="-1043.5" font-family="Times,serif" font-size="14.00">ϕ = 1.00,</text>
<text text-anchor="middle" x="777.5" y="-1028.5" font-family="Times,serif" font-size="14.00">ϕ xᵤ = [1.00 1.00],</text>
<text text-anchor="middle" x="777.5" y="-1013.5" font-family="Times,serif" font-size="14.00">ϕ xᵥ = [3.00 2.33]</text>
</g>
<!-- v12 -->
<g id="node11" class="node">
<title>v12</title>
<ellipse fill="none" stroke="black" cx="616" cy="-1408.57" rx="73.58" ry="26.74"/>
<text text-anchor="middle" x="616" y="-1412.37" font-family="Times,serif" font-size="14.00">r12</text>
<text text-anchor="middle" x="616" y="-1397.37" font-family="Times,serif" font-size="14.00"> x = [1.00 1.00]</text>
</g>
<!-- v3&#45;&gt;v12 -->
<g id="edge4" class="edge">
<title>v3&#45;&gt;v12</title>
<path fill="none" stroke="black" d="M590.61,-1255.21C603.41,-1263.7 615.88,-1274.83 623,-1288.7 635.96,-1313.94 633.01,-1346.29 627.49,-1370.87"/>
<polygon fill="black" stroke="black" points="624.12,-1369.88 625.09,-1380.43 630.91,-1371.58 624.12,-1369.88"/>
<text text-anchor="middle" x="689" y="-1352.5" font-family="Times,serif" font-size="14.00">r1 &#45;&gt; r12</text>
<text text-anchor="middle" x="689" y="-1337.5" font-family="Times,serif" font-size="14.00">cost = &#45;0.00,</text>
<text text-anchor="middle" x="689" y="-1322.5" font-family="Times,serif" font-size="14.00">ϕ = &#45;0.00,</text>
<text text-anchor="middle" x="689" y="-1307.5" font-family="Times,serif" font-size="14.00">ϕ xᵤ = [ 0.00 &#45;0.00],</text>
<text text-anchor="middle" x="689" y="-1292.5" font-family="Times,serif" font-size="14.00">ϕ xᵥ = [&#45;0.00 &#45;0.00]</text>
</g>
<!-- v4 -->
<g id="node3" class="node">
<title>v4</title>
<ellipse fill="none" stroke="black" cx="157" cy="-871.83" rx="73.58" ry="26.74"/>
<text text-anchor="middle" x="157" y="-875.63" font-family="Times,serif" font-size="14.00">r2</text>
<text text-anchor="middle" x="157" y="-860.63" font-family="Times,serif" font-size="14.00"> x = [4.00 3.00]</text>
</g>
<!-- v7 -->
<g id="node6" class="node">
<title>v7</title>
<ellipse fill="none" stroke="black" cx="157" cy="-707.09" rx="73.58" ry="26.74"/>
<text text-anchor="middle" x="157" y="-710.89" font-family="Times,serif" font-size="14.00">r6</text>
<text text-anchor="middle" x="157" y="-695.89" font-family="Times,serif" font-size="14.00"> x = [4.00 5.00]</text>
</g>
<!-- v4&#45;&gt;v7 -->
<g id="edge5" class="edge">
<title>v4&#45;&gt;v7</title>
<path fill="none" stroke="black" d="M114.98,-849.46C106.94,-843.34 99.61,-835.86 95,-826.96 79.68,-797.36 79.68,-781.57 95,-751.96 97.88,-746.4 101.82,-741.39 106.34,-736.92"/>
<polygon fill="black" stroke="black" points="108.55,-739.63 113.83,-730.45 103.98,-734.33 108.55,-739.63"/>
<text text-anchor="middle" x="146.5" y="-815.76" font-family="Times,serif" font-size="14.00">r2 &#45;&gt; r6</text>
<text text-anchor="middle" x="146.5" y="-800.76" font-family="Times,serif" font-size="14.00">cost = 2.00,</text>
<text text-anchor="middle" x="146.5" y="-785.76" font-family="Times,serif" font-size="14.00">ϕ = 1.00,</text>
<text text-anchor="middle" x="146.5" y="-770.76" font-family="Times,serif" font-size="14.00">ϕ xᵤ = [4.00 3.00],</text>
<text text-anchor="middle" x="146.5" y="-755.76" font-family="Times,serif" font-size="14.00">ϕ xᵥ = [4.00 5.00]</text>
</g>
<!-- v4&#45;&gt;v9 -->
<g id="edge6" class="edge">
<title>v4&#45;&gt;v9</title>
<path fill="none" stroke="black" d="M112,-893.37C103.18,-899.56 95.09,-907.28 90,-916.7 74.15,-946.02 69.04,-965.78 90,-991.7 111.46,-1018.24 196.1,-1032.42 262.05,-1039.6"/>
<polygon fill="black" stroke="black" points="261.48,-1043.06 271.79,-1040.61 262.21,-1036.09 261.48,-1043.06"/>
<text text-anchor="middle" x="146" y="-980.5" font-family="Times,serif" font-size="14.00">r2 &#45;&gt; r8</text>
<text text-anchor="middle" x="146" y="-965.5" font-family="Times,serif" font-size="14.00">cost = &#45;0.00,</text>
<text text-anchor="middle" x="146" y="-950.5" font-family="Times,serif" font-size="14.00">ϕ = &#45;0.00,</text>
<text text-anchor="middle" x="146" y="-935.5" font-family="Times,serif" font-size="14.00">ϕ xᵤ = [ 0.00 &#45;0.00],</text>
<text text-anchor="middle" x="146" y="-920.5" font-family="Times,serif" font-size="14.00">ϕ xᵥ = [&#45;0.00 &#45;0.00]</text>
</g>
<!-- v5&#45;&gt;v2 -->
<g id="edge7" class="edge">
<title>v5&#45;&gt;v2</title>
<path fill="none" stroke="black" d="M847.74,-1596.89C854.73,-1603.03 861.37,-1610.22 866,-1618.18 880.41,-1642.97 885.71,-1675.17 887.51,-1699.79"/>
<polygon fill="black" stroke="black" points="884.01,-1699.91 888.06,-1709.7 891,-1699.52 884.01,-1699.91"/>
<text text-anchor="middle" x="942" y="-1681.98" font-family="Times,serif" font-size="14.00">r3 &#45;&gt; r0</text>
<text text-anchor="middle" x="942" y="-1666.98" font-family="Times,serif" font-size="14.00">cost = &#45;0.00,</text>
<text text-anchor="middle" x="942" y="-1651.98" font-family="Times,serif" font-size="14.00">ϕ = &#45;0.00,</text>
<text text-anchor="middle" x="942" y="-1636.98" font-family="Times,serif" font-size="14.00">ϕ xᵤ = [&#45;0.00 &#45;0.00],</text>
<text text-anchor="middle" x="942" y="-1621.98" font-family="Times,serif" font-size="14.00">ϕ xᵥ = [ 0.00 &#45;0.00]</text>
</g>
<!-- v5&#45;&gt;v10 -->
<g id="edge8" class="edge">
<title>v5&#45;&gt;v10</title>
<path fill="none" stroke="black" d="M846.83,-1549.74C853.53,-1543.6 859.81,-1536.41 864,-1528.44 888.75,-1481.35 878,-1462.77 878,-1409.57 878,-1409.57 878,-1409.57 878,-1046.2 878,-971.33 797.16,-921.91 737.51,-895.64"/>
<polygon fill="black" stroke="black" points="738.98,-892.46 728.41,-891.75 736.23,-898.9 738.98,-892.46"/>
<text text-anchor="middle" x="934" y="-1259.5" font-family="Times,serif" font-size="14.00">r3 &#45;&gt; r9</text>
<text text-anchor="middle" x="934" y="-1244.5" font-family="Times,serif" font-size="14.00">cost = &#45;0.00,</text>
<text text-anchor="middle" x="934" y="-1229.5" font-family="Times,serif" font-size="14.00">ϕ = &#45;0.00,</text>
<text text-anchor="middle" x="934" y="-1214.5" font-family="Times,serif" font-size="14.00">ϕ xᵤ = [ 0.00 &#45;0.00],</text>
<text text-anchor="middle" x="934" y="-1199.5" font-family="Times,serif" font-size="14.00">ϕ xᵥ = [&#45;0.00 &#45;0.00]</text>
</g>
<!-- v5&#45;&gt;v12 -->
<g id="edge9" class="edge">
<title>v5&#45;&gt;v12</title>
<path fill="none" stroke="black" d="M775.47,-1550.97C766.77,-1544.66 758.26,-1537.09 752,-1528.44 731.56,-1500.19 752.74,-1478.97 729,-1453.44 718.28,-1441.91 704.17,-1433.37 689.56,-1427.06"/>
<polygon fill="black" stroke="black" points="690.88,-1423.81 680.3,-1423.4 688.31,-1430.33 690.88,-1423.81"/>
<text text-anchor="middle" x="808" y="-1517.24" font-family="Times,serif" font-size="14.00">r3 &#45;&gt; r12</text>
<text text-anchor="middle" x="808" y="-1502.24" font-family="Times,serif" font-size="14.00">cost = &#45;0.00,</text>
<text text-anchor="middle" x="808" y="-1487.24" font-family="Times,serif" font-size="14.00">ϕ = &#45;0.00,</text>
<text text-anchor="middle" x="808" y="-1472.24" font-family="Times,serif" font-size="14.00">ϕ xᵤ = [ 0.00 &#45;0.00],</text>
<text text-anchor="middle" x="808" y="-1457.24" font-family="Times,serif" font-size="14.00">ϕ xᵥ = [&#45;0.00 &#45;0.00]</text>
</g>
<!-- v6 -->
<g id="node5" class="node">
<title>v6</title>
<ellipse fill="none" stroke="black" cx="742" cy="-26.87" rx="67.35" ry="26.74"/>
<text text-anchor="middle" x="742" y="-30.67" font-family="Times,serif" font-size="14.00">r5</text>
<text text-anchor="middle" x="742" y="-15.67" font-family="Times,serif" font-size="14.00"> x = [nan nan]</text>
</g>
<!-- v14 -->
<g id="node13" class="node">
<title>v14</title>
<ellipse fill="none" stroke="black" cx="607" cy="-191.61" rx="67.35" ry="26.74"/>
<text text-anchor="middle" x="607" y="-195.41" font-family="Times,serif" font-size="14.00">r15</text>
<text text-anchor="middle" x="607" y="-180.41" font-family="Times,serif" font-size="14.00"> x = [nan nan]</text>
</g>
<!-- v6&#45;&gt;v14 -->
<g id="edge10" class="edge">
<title>v6&#45;&gt;v14</title>
<path fill="none" stroke="black" d="M740.12,-53.91C737.42,-84.53 731.45,-132.92 720,-146.74 709.1,-159.9 693.74,-169.13 677.85,-175.59"/>
<polygon fill="black" stroke="black" points="676.97,-172.19 668.8,-178.93 679.39,-178.75 676.97,-172.19"/>
<text text-anchor="middle" x="795" y="-135.54" font-family="Times,serif" font-size="14.00">r5 &#45;&gt; r15</text>
<text text-anchor="middle" x="795" y="-120.54" font-family="Times,serif" font-size="14.00">cost = &#45;0.00,</text>
<text text-anchor="middle" x="795" y="-105.54" font-family="Times,serif" font-size="14.00">ϕ = &#45;0.00,</text>
<text text-anchor="middle" x="795" y="-90.54" font-family="Times,serif" font-size="14.00">ϕ xᵤ = [&#45;0.00 &#45;0.00],</text>
<text text-anchor="middle" x="795" y="-75.54" font-family="Times,serif" font-size="14.00">ϕ xᵥ = [&#45;0.00 &#45;0.00]</text>
</g>
<!-- v7&#45;&gt;v4 -->
<g id="edge11" class="edge">
<title>v7&#45;&gt;v4</title>
<path fill="none" stroke="black" d="M185.41,-732.2C190.55,-738.09 195.17,-744.78 198,-751.96 210.23,-782.97 210.23,-795.95 198,-826.96 196.54,-830.66 194.6,-834.23 192.37,-837.63"/>
<polygon fill="black" stroke="black" points="189.63,-835.45 186.33,-845.52 195.19,-839.71 189.63,-835.45"/>
<text text-anchor="middle" x="262" y="-815.76" font-family="Times,serif" font-size="14.00">r6 &#45;&gt; r2</text>
<text text-anchor="middle" x="262" y="-800.76" font-family="Times,serif" font-size="14.00">cost = &#45;0.00,</text>
<text text-anchor="middle" x="262" y="-785.76" font-family="Times,serif" font-size="14.00">ϕ = &#45;0.00,</text>
<text text-anchor="middle" x="262" y="-770.76" font-family="Times,serif" font-size="14.00">ϕ xᵤ = [0.00 0.00],</text>
<text text-anchor="middle" x="262" y="-755.76" font-family="Times,serif" font-size="14.00">ϕ xᵥ = [&#45;0.00 &#45;0.00]</text>
</g>
<!-- v8 -->
<g id="node7" class="node">
<title>v8</title>
<ellipse fill="none" stroke="black" cx="246" cy="-26.87" rx="73.58" ry="26.74"/>
<text text-anchor="middle" x="246" y="-30.67" font-family="Times,serif" font-size="14.00">r7</text>
<text text-anchor="middle" x="246" y="-15.67" font-family="Times,serif" font-size="14.00"> x = [4.00 5.00]</text>
</g>
<!-- v7&#45;&gt;v8 -->
<g id="edge12" class="edge">
<title>v7&#45;&gt;v8</title>
<path fill="none" stroke="black" d="M114.1,-685C67.61,-658.78 0,-609.3 0,-543.35 0,-543.35 0,-543.35 0,-190.61 0,-107.32 99.3,-64.17 171.73,-43.78"/>
<polygon fill="black" stroke="black" points="172.45,-47.21 181.19,-41.21 170.62,-40.45 172.45,-47.21"/>
<text text-anchor="middle" x="51.5" y="-393.28" font-family="Times,serif" font-size="14.00">r6 &#45;&gt; r7</text>
<text text-anchor="middle" x="51.5" y="-378.28" font-family="Times,serif" font-size="14.00">cost = 0.00,</text>
<text text-anchor="middle" x="51.5" y="-363.28" font-family="Times,serif" font-size="14.00">ϕ = 1.00,</text>
<text text-anchor="middle" x="51.5" y="-348.28" font-family="Times,serif" font-size="14.00">ϕ xᵤ = [4.00 5.00],</text>
<text text-anchor="middle" x="51.5" y="-333.28" font-family="Times,serif" font-size="14.00">ϕ xᵥ = [4.00 5.00]</text>
</g>
<!-- v13 -->
<g id="node12" class="node">
<title>v13</title>
<ellipse fill="none" stroke="black" cx="312" cy="-542.35" rx="73.58" ry="26.74"/>
<text text-anchor="middle" x="312" y="-546.15" font-family="Times,serif" font-size="14.00">r13</text>
<text text-anchor="middle" x="312" y="-531.15" font-family="Times,serif" font-size="14.00"> x = [5.00 5.67]</text>
</g>
<!-- v7&#45;&gt;v13 -->
<g id="edge13" class="edge">
<title>v7&#45;&gt;v13</title>
<path fill="none" stroke="black" d="M154.15,-680.16C152.73,-653.68 154.86,-612.89 177,-587.22 190.92,-571.08 210.83,-560.84 231.1,-554.36"/>
<polygon fill="black" stroke="black" points="231.94,-557.76 240.58,-551.63 230.01,-551.03 231.94,-557.76"/>
<text text-anchor="middle" x="233" y="-651.02" font-family="Times,serif" font-size="14.00">r6 &#45;&gt; r13</text>
<text text-anchor="middle" x="233" y="-636.02" font-family="Times,serif" font-size="14.00">cost = &#45;0.00,</text>
<text text-anchor="middle" x="233" y="-621.02" font-family="Times,serif" font-size="14.00">ϕ = &#45;0.00,</text>
<text text-anchor="middle" x="233" y="-606.02" font-family="Times,serif" font-size="14.00">ϕ xᵤ = [ 0.00 &#45;0.00],</text>
<text text-anchor="middle" x="233" y="-591.02" font-family="Times,serif" font-size="14.00">ϕ xᵥ = [&#45;0.00 &#45;0.00]</text>
</g>
<!-- v8&#45;&gt;v7 -->
<g id="edge14" class="edge">
<title>v8&#45;&gt;v7</title>
<path fill="none" stroke="black" d="M213.92,-51.15C206.78,-57.3 199.66,-64.32 194,-71.74 158.69,-118.02 139,-132.4 139,-190.61 139,-543.35 139,-543.35 139,-543.35 139,-586.52 145.33,-635.73 150.49,-668.63"/>
<polygon fill="black" stroke="black" points="147.03,-669.17 152.08,-678.48 153.94,-668.05 147.03,-669.17"/>
<text text-anchor="middle" x="193" y="-393.28" font-family="Times,serif" font-size="14.00">r7 &#45;&gt; r6</text>
<text text-anchor="middle" x="193" y="-378.28" font-family="Times,serif" font-size="14.00">cost = &#45;0.00,</text>
<text text-anchor="middle" x="193" y="-363.28" font-family="Times,serif" font-size="14.00">ϕ = &#45;0.00,</text>
<text text-anchor="middle" x="193" y="-348.28" font-family="Times,serif" font-size="14.00">ϕ xᵤ = [0.00 0.00],</text>
<text text-anchor="middle" x="193" y="-333.28" font-family="Times,serif" font-size="14.00">ϕ xᵥ = [&#45;0.00 &#45;0.00]</text>
</g>
<!-- v8&#45;&gt;v13 -->
<g id="edge15" class="edge">
<title>v8&#45;&gt;v13</title>
<path fill="none" stroke="black" d="M252.82,-53.67C262.89,-92.87 281.58,-169.9 291,-236.48 304.54,-332.11 309.44,-445.91 311.14,-503.67"/>
<polygon fill="black" stroke="black" points="307.64,-503.71 311.42,-513.6 314.64,-503.51 307.64,-503.71"/>
<text text-anchor="middle" x="351.5" y="-300.28" font-family="Times,serif" font-size="14.00">r7 &#45;&gt; r13</text>
<text text-anchor="middle" x="351.5" y="-285.28" font-family="Times,serif" font-size="14.00">cost = 1.20,</text>
<text text-anchor="middle" x="351.5" y="-270.28" font-family="Times,serif" font-size="14.00">ϕ = 1.00,</text>
<text text-anchor="middle" x="351.5" y="-255.28" font-family="Times,serif" font-size="14.00">ϕ xᵤ = [4.00 5.00],</text>
<text text-anchor="middle" x="351.5" y="-240.28" font-family="Times,serif" font-size="14.00">ϕ xᵥ = [5.00 5.67]</text>
</g>
<!-- v8&#45;&gt;v14 -->
<g id="edge16" class="edge">
<title>v8&#45;&gt;v14</title>
<path fill="none" stroke="black" d="M316.71,-34.67C370.37,-41.21 438.33,-52.94 459,-71.74 484.79,-95.2 457.84,-121.6 482,-146.74 486.82,-151.76 515.03,-161.84 543.43,-171.07"/>
<polygon fill="black" stroke="black" points="542.24,-174.37 552.83,-174.09 544.38,-167.7 542.24,-174.37"/>
<text text-anchor="middle" x="538" y="-135.54" font-family="Times,serif" font-size="14.00">r7 &#45;&gt; r15</text>
<text text-anchor="middle" x="538" y="-120.54" font-family="Times,serif" font-size="14.00">cost = &#45;0.00,</text>
<text text-anchor="middle" x="538" y="-105.54" font-family="Times,serif" font-size="14.00">ϕ = &#45;0.00,</text>
<text text-anchor="middle" x="538" y="-90.54" font-family="Times,serif" font-size="14.00">ϕ xᵤ = [ 0.00 &#45;0.00],</text>
<text text-anchor="middle" x="538" y="-75.54" font-family="Times,serif" font-size="14.00">ϕ xᵥ = [&#45;0.00 &#45;0.00]</text>
</g>
<!-- v9&#45;&gt;v3 -->
<g id="edge17" class="edge">
<title>v9&#45;&gt;v3</title>
<path fill="none" stroke="black" d="M399.9,-1065.38C419.33,-1073.88 439.85,-1085.99 454,-1102.7 476.52,-1129.31 457.22,-1148.99 477,-1177.7 483.42,-1187.02 491.93,-1195.48 500.79,-1202.81"/>
<polygon fill="black" stroke="black" points="498.47,-1205.44 508.51,-1208.82 502.77,-1199.92 498.47,-1205.44"/>
<text text-anchor="middle" x="533" y="-1166.5" font-family="Times,serif" font-size="14.00">r8 &#45;&gt; r1</text>
<text text-anchor="middle" x="533" y="-1151.5" font-family="Times,serif" font-size="14.00">cost = &#45;0.00,</text>
<text text-anchor="middle" x="533" y="-1136.5" font-family="Times,serif" font-size="14.00">ϕ = &#45;0.00,</text>
<text text-anchor="middle" x="533" y="-1121.5" font-family="Times,serif" font-size="14.00">ϕ xᵤ = [ 0.00 &#45;0.00],</text>
<text text-anchor="middle" x="533" y="-1106.5" font-family="Times,serif" font-size="14.00">ϕ xᵥ = [&#45;0.00 &#45;0.00]</text>
</g>
<!-- v9&#45;&gt;v4 -->
<g id="edge18" class="edge">
<title>v9&#45;&gt;v4</title>
<path fill="none" stroke="black" d="M286.17,-1030.76C264.34,-1022.39 241.01,-1009.92 225,-991.7 201.98,-965.51 220.16,-946.46 202,-916.7 199.51,-912.61 196.55,-908.64 193.35,-904.86"/>
<polygon fill="black" stroke="black" points="195.96,-902.52 186.61,-897.54 190.81,-907.27 195.96,-902.52"/>
<text text-anchor="middle" x="276.5" y="-980.5" font-family="Times,serif" font-size="14.00">r8 &#45;&gt; r2</text>
<text text-anchor="middle" x="276.5" y="-965.5" font-family="Times,serif" font-size="14.00">cost = 0.00,</text>
<text text-anchor="middle" x="276.5" y="-950.5" font-family="Times,serif" font-size="14.00">ϕ = 1.00,</text>
<text text-anchor="middle" x="276.5" y="-935.5" font-family="Times,serif" font-size="14.00">ϕ xᵤ = [4.00 3.00],</text>
<text text-anchor="middle" x="276.5" y="-920.5" font-family="Times,serif" font-size="14.00">ϕ xᵥ = [4.00 3.00]</text>
</g>
<!-- v9&#45;&gt;v10 -->
<g id="edge19" class="edge">
<title>v9&#45;&gt;v10</title>
<path fill="none" stroke="black" d="M337.47,-1020.18C330.8,-991.09 325.62,-944.43 351,-916.7 382.19,-882.63 504.7,-874.15 589.79,-872.49"/>
<polygon fill="black" stroke="black" points="589.82,-875.99 599.76,-872.33 589.71,-868.99 589.82,-875.99"/>
<text text-anchor="middle" x="407" y="-980.5" font-family="Times,serif" font-size="14.00">r8 &#45;&gt; r9</text>
<text text-anchor="middle" x="407" y="-965.5" font-family="Times,serif" font-size="14.00">cost = &#45;0.00,</text>
<text text-anchor="middle" x="407" y="-950.5" font-family="Times,serif" font-size="14.00">ϕ = &#45;0.00,</text>
<text text-anchor="middle" x="407" y="-935.5" font-family="Times,serif" font-size="14.00">ϕ xᵤ = [ 0.00 &#45;0.00],</text>
<text text-anchor="middle" x="407" y="-920.5" font-family="Times,serif" font-size="14.00">ϕ xᵥ = [&#45;0.00 &#45;0.00]</text>
</g>
<!-- v10&#45;&gt;v3 -->
<g id="edge20" class="edge">
<title>v10&#45;&gt;v3</title>
<path fill="none" stroke="black" d="M657.61,-898.24C640.46,-924.76 615.1,-968.2 603,-1009.7 582.03,-1081.63 616.08,-1107.84 589,-1177.7 586.21,-1184.88 582.17,-1191.91 577.67,-1198.4"/>
<polygon fill="black" stroke="black" points="574.97,-1196.17 571.76,-1206.26 580.56,-1200.37 574.97,-1196.17"/>
<text text-anchor="middle" x="657" y="-1073.5" font-family="Times,serif" font-size="14.00">r9 &#45;&gt; r1</text>
<text text-anchor="middle" x="657" y="-1058.5" font-family="Times,serif" font-size="14.00">cost = &#45;0.00,</text>
<text text-anchor="middle" x="657" y="-1043.5" font-family="Times,serif" font-size="14.00">ϕ = &#45;0.00,</text>
<text text-anchor="middle" x="657" y="-1028.5" font-family="Times,serif" font-size="14.00">ϕ xᵤ = [0.00 0.00],</text>
<text text-anchor="middle" x="657" y="-1013.5" font-family="Times,serif" font-size="14.00">ϕ xᵥ = [&#45;0.00 &#45;0.00]</text>
</g>
<!-- v10&#45;&gt;v5 -->
<g id="edge21" class="edge">
<title>v10&#45;&gt;v5</title>
<path fill="none" stroke="black" d="M747.3,-877.03C850.05,-887.35 1026,-923.01 1026,-1046.2 1026,-1409.57 1026,-1409.57 1026,-1409.57 1026,-1484.9 940.73,-1530.14 878.35,-1553.15"/>
<polygon fill="black" stroke="black" points="877.44,-1549.76 869.2,-1556.42 879.79,-1556.36 877.44,-1549.76"/>
<text text-anchor="middle" x="1082" y="-1259.5" font-family="Times,serif" font-size="14.00">r9 &#45;&gt; r3</text>
<text text-anchor="middle" x="1082" y="-1244.5" font-family="Times,serif" font-size="14.00">cost = &#45;0.00,</text>
<text text-anchor="middle" x="1082" y="-1229.5" font-family="Times,serif" font-size="14.00">ϕ = &#45;0.00,</text>
<text text-anchor="middle" x="1082" y="-1214.5" font-family="Times,serif" font-size="14.00">ϕ xᵤ = [ 0.00 &#45;0.00],</text>
<text text-anchor="middle" x="1082" y="-1199.5" font-family="Times,serif" font-size="14.00">ϕ xᵥ = [ 0.00 &#45;0.00]</text>
</g>
<!-- v10&#45;&gt;v9 -->
<g id="edge22" class="edge">
<title>v10&#45;&gt;v9</title>
<path fill="none" stroke="black" d="M605.85,-881.55C559.33,-888.76 503.43,-900.44 486,-916.7 460.5,-940.48 485.93,-965.44 463,-991.7 449.91,-1006.69 431.83,-1017.82 413.76,-1025.97"/>
<polygon fill="black" stroke="black" points="412.42,-1022.74 404.56,-1029.85 415.13,-1029.19 412.42,-1022.74"/>
<text text-anchor="middle" x="537.5" y="-980.5" font-family="Times,serif" font-size="14.00">r9 &#45;&gt; r8</text>
<text text-anchor="middle" x="537.5" y="-965.5" font-family="Times,serif" font-size="14.00">cost = 1.20,</text>
<text text-anchor="middle" x="537.5" y="-950.5" font-family="Times,serif" font-size="14.00">ϕ = 1.00,</text>
<text text-anchor="middle" x="537.5" y="-935.5" font-family="Times,serif" font-size="14.00">ϕ xᵤ = [3.00 2.33],</text>
<text text-anchor="middle" x="537.5" y="-920.5" font-family="Times,serif" font-size="14.00">ϕ xᵥ = [4.00 3.00]</text>
</g>
<!-- v11 -->
<g id="node10" class="node">
<title>v11</title>
<ellipse fill="none" stroke="black" cx="472" cy="-366.98" rx="73.58" ry="26.74"/>
<text text-anchor="middle" x="472" y="-370.78" font-family="Times,serif" font-size="14.00">r11</text>
<text text-anchor="middle" x="472" y="-355.78" font-family="Times,serif" font-size="14.00"> x = [7.00 7.00]</text>
</g>
<!-- v11&#45;&gt;v13 -->
<g id="edge23" class="edge">
<title>v11&#45;&gt;v13</title>
<path fill="none" stroke="black" d="M474.96,-394.15C476.71,-422.94 474.84,-468.91 450,-497.48 435.46,-514.2 414.58,-524.61 393.44,-531.07"/>
<polygon fill="black" stroke="black" points="392.57,-527.68 383.85,-533.7 394.42,-534.43 392.57,-527.68"/>
<text text-anchor="middle" x="532" y="-486.28" font-family="Times,serif" font-size="14.00">r11 &#45;&gt; r13</text>
<text text-anchor="middle" x="532" y="-471.28" font-family="Times,serif" font-size="14.00">cost = &#45;0.00,</text>
<text text-anchor="middle" x="532" y="-456.28" font-family="Times,serif" font-size="14.00">ϕ = &#45;0.00,</text>
<text text-anchor="middle" x="532" y="-441.28" font-family="Times,serif" font-size="14.00">ϕ xᵤ = [ 0.00 &#45;0.00],</text>
<text text-anchor="middle" x="532" y="-426.28" font-family="Times,serif" font-size="14.00">ϕ xᵥ = [&#45;0.00 &#45;0.00]</text>
</g>
<!-- v11&#45;&gt;v14 -->
<g id="edge24" class="edge">
<title>v11&#45;&gt;v14</title>
<path fill="none" stroke="black" d="M540.53,-356.91C593.71,-348.3 661.13,-333.39 678,-311.48 698.33,-285.07 694.23,-265.59 678,-236.48 674.02,-229.35 668.35,-223.23 661.93,-218.02"/>
<polygon fill="black" stroke="black" points="664.19,-215.34 654.02,-212.36 660.12,-221.03 664.19,-215.34"/>
<text text-anchor="middle" x="748" y="-300.28" font-family="Times,serif" font-size="14.00">r11 &#45;&gt; r15</text>
<text text-anchor="middle" x="748" y="-285.28" font-family="Times,serif" font-size="14.00">cost = &#45;0.00,</text>
<text text-anchor="middle" x="748" y="-270.28" font-family="Times,serif" font-size="14.00">ϕ = &#45;0.00,</text>
<text text-anchor="middle" x="748" y="-255.28" font-family="Times,serif" font-size="14.00">ϕ xᵤ = [ 0.00 &#45;0.00],</text>
<text text-anchor="middle" x="748" y="-240.28" font-family="Times,serif" font-size="14.00">ϕ xᵥ = [&#45;0.00 &#45;0.00]</text>
</g>
<!-- v53 -->
<g id="node17" class="node">
<title>v53</title>
<ellipse fill="none" stroke="black" cx="439" cy="-191.61" rx="73.58" ry="26.74"/>
<text text-anchor="middle" x="439" y="-195.41" font-family="Times,serif" font-size="14.00">t1</text>
<text text-anchor="middle" x="439" y="-180.41" font-family="Times,serif" font-size="14.00"> x = [7.00 7.00]</text>
</g>
<!-- v11&#45;&gt;v53 -->
<g id="edge36" class="edge">
<title>v11&#45;&gt;v53</title>
<path fill="none" stroke="black" d="M453.41,-340.62C448.01,-331.84 442.81,-321.63 440,-311.48 432.66,-284.93 432.7,-253.76 434.42,-230"/>
<polygon fill="black" stroke="black" points="437.9,-230.42 435.28,-220.16 430.93,-229.82 437.9,-230.42"/>
<text text-anchor="middle" x="491.5" y="-300.28" font-family="Times,serif" font-size="14.00">r11 &#45;&gt; t1</text>
<text text-anchor="middle" x="491.5" y="-285.28" font-family="Times,serif" font-size="14.00">cost = 0.00,</text>
<text text-anchor="middle" x="491.5" y="-270.28" font-family="Times,serif" font-size="14.00">ϕ = 1.00,</text>
<text text-anchor="middle" x="491.5" y="-255.28" font-family="Times,serif" font-size="14.00">ϕ xᵤ = [7.00 7.00],</text>
<text text-anchor="middle" x="491.5" y="-240.28" font-family="Times,serif" font-size="14.00">ϕ xᵥ = [7.00 7.00]</text>
</g>
<!-- v12&#45;&gt;v3 -->
<g id="edge25" class="edge">
<title>v12&#45;&gt;v3</title>
<path fill="none" stroke="black" d="M554.59,-1393.51C539.46,-1387 525.02,-1377.51 516,-1363.7 497.5,-1335.38 510.27,-1297.14 524.61,-1269.56"/>
<polygon fill="black" stroke="black" points="527.64,-1271.33 529.39,-1260.88 521.5,-1267.95 527.64,-1271.33"/>
<text text-anchor="middle" x="567.5" y="-1352.5" font-family="Times,serif" font-size="14.00">r12 &#45;&gt; r1</text>
<text text-anchor="middle" x="567.5" y="-1337.5" font-family="Times,serif" font-size="14.00">cost = 0.00,</text>
<text text-anchor="middle" x="567.5" y="-1322.5" font-family="Times,serif" font-size="14.00">ϕ = 1.00,</text>
<text text-anchor="middle" x="567.5" y="-1307.5" font-family="Times,serif" font-size="14.00">ϕ xᵤ = [1.00 1.00],</text>
<text text-anchor="middle" x="567.5" y="-1292.5" font-family="Times,serif" font-size="14.00">ϕ xᵥ = [1.00 1.00]</text>
</g>
<!-- v12&#45;&gt;v5 -->
<g id="edge26" class="edge">
<title>v12&#45;&gt;v5</title>
<path fill="none" stroke="black" d="M606.6,-1435.35C598.8,-1461.71 592.02,-1502.39 613,-1528.44 628.67,-1547.9 687.26,-1559.2 737.16,-1565.44"/>
<polygon fill="black" stroke="black" points="736.47,-1568.88 746.81,-1566.59 737.3,-1561.93 736.47,-1568.88"/>
<text text-anchor="middle" x="669" y="-1517.24" font-family="Times,serif" font-size="14.00">r12 &#45;&gt; r3</text>
<text text-anchor="middle" x="669" y="-1502.24" font-family="Times,serif" font-size="14.00">cost = &#45;0.00,</text>
<text text-anchor="middle" x="669" y="-1487.24" font-family="Times,serif" font-size="14.00">ϕ = &#45;0.00,</text>
<text text-anchor="middle" x="669" y="-1472.24" font-family="Times,serif" font-size="14.00">ϕ xᵤ = [&#45;0.00 &#45;0.00],</text>
<text text-anchor="middle" x="669" y="-1457.24" font-family="Times,serif" font-size="14.00">ϕ xᵥ = [&#45;0.00 &#160;0.00]</text>
</g>
<!-- v13&#45;&gt;v7 -->
<g id="edge27" class="edge">
<title>v13&#45;&gt;v7</title>
<path fill="none" stroke="black" d="M314.06,-569.31C314.71,-595.83 311.47,-636.63 289,-662.22 275.42,-677.69 256.26,-687.72 236.73,-694.22"/>
<polygon fill="black" stroke="black" points="235.89,-690.81 227.32,-697.04 237.91,-697.51 235.89,-690.81"/>
<text text-anchor="middle" x="370" y="-651.02" font-family="Times,serif" font-size="14.00">r13 &#45;&gt; r6</text>
<text text-anchor="middle" x="370" y="-636.02" font-family="Times,serif" font-size="14.00">cost = &#45;0.00,</text>
<text text-anchor="middle" x="370" y="-621.02" font-family="Times,serif" font-size="14.00">ϕ = 0.00,</text>
<text text-anchor="middle" x="370" y="-606.02" font-family="Times,serif" font-size="14.00">ϕ xᵤ = [&#45;0.00 &#45;0.00],</text>
<text text-anchor="middle" x="370" y="-591.02" font-family="Times,serif" font-size="14.00">ϕ xᵥ = [&#45;0.00 &#45;0.00]</text>
</g>
<!-- v13&#45;&gt;v8 -->
<g id="edge28" class="edge">
<title>v13&#45;&gt;v8</title>
<path fill="none" stroke="black" d="M306.04,-515.26C293.56,-461.54 264.68,-342.52 251,-329.48 225.88,-305.53 196.53,-338.71 175,-311.48 144.59,-273.03 200.5,-131.13 229.77,-63.79"/>
<polygon fill="black" stroke="black" points="232.8,-65.6 233.62,-55.04 226.39,-62.78 232.8,-65.6"/>
<text text-anchor="middle" x="231" y="-300.28" font-family="Times,serif" font-size="14.00">r13 &#45;&gt; r7</text>
<text text-anchor="middle" x="231" y="-285.28" font-family="Times,serif" font-size="14.00">cost = &#45;0.00,</text>
<text text-anchor="middle" x="231" y="-270.28" font-family="Times,serif" font-size="14.00">ϕ = &#45;0.00,</text>
<text text-anchor="middle" x="231" y="-255.28" font-family="Times,serif" font-size="14.00">ϕ xᵤ = [ 0.00 &#45;0.00],</text>
<text text-anchor="middle" x="231" y="-240.28" font-family="Times,serif" font-size="14.00">ϕ xᵥ = [&#45;0.00 &#45;0.00]</text>
</g>
<!-- v13&#45;&gt;v11 -->
<g id="edge29" class="edge">
<title>v13&#45;&gt;v11</title>
<path fill="none" stroke="black" d="M319.19,-515.39C320.79,-509.51 322.47,-503.28 324,-497.48 332.76,-464.23 320.6,-448.57 343,-422.48 357.57,-405.52 378.32,-393.71 398.93,-385.54"/>
<polygon fill="black" stroke="black" points="400.06,-388.85 408.24,-382.11 397.65,-382.28 400.06,-388.85"/>
<text text-anchor="middle" x="394.5" y="-486.28" font-family="Times,serif" font-size="14.00">r13 &#45;&gt; r11</text>
<text text-anchor="middle" x="394.5" y="-471.28" font-family="Times,serif" font-size="14.00">cost = 2.40,</text>
<text text-anchor="middle" x="394.5" y="-456.28" font-family="Times,serif" font-size="14.00">ϕ = 1.00,</text>
<text text-anchor="middle" x="394.5" y="-441.28" font-family="Times,serif" font-size="14.00">ϕ xᵤ = [5.00 5.67],</text>
<text text-anchor="middle" x="394.5" y="-426.28" font-family="Times,serif" font-size="14.00">ϕ xᵥ = [7.00 7.00]</text>
</g>
<!-- v14&#45;&gt;v6 -->
<g id="edge30" class="edge">
<title>v14&#45;&gt;v6</title>
<path fill="none" stroke="black" d="M600.58,-164.62C595.75,-138.46 592.95,-98.29 613,-71.74 625.93,-54.62 645.89,-44.12 666.27,-37.7"/>
<polygon fill="black" stroke="black" points="667.13,-41.1 675.81,-35.03 665.24,-34.36 667.13,-41.1"/>
<text text-anchor="middle" x="664.5" y="-135.54" font-family="Times,serif" font-size="14.00">r15 &#45;&gt; r5</text>
<text text-anchor="middle" x="664.5" y="-120.54" font-family="Times,serif" font-size="14.00">cost = 0.00,</text>
<text text-anchor="middle" x="664.5" y="-105.54" font-family="Times,serif" font-size="14.00">ϕ = 0.00,</text>
<text text-anchor="middle" x="664.5" y="-90.54" font-family="Times,serif" font-size="14.00">ϕ xᵤ = [0.00 0.00],</text>
<text text-anchor="middle" x="664.5" y="-75.54" font-family="Times,serif" font-size="14.00">ϕ xᵥ = [0.00 0.00]</text>
</g>
<!-- v14&#45;&gt;v8 -->
<g id="edge31" class="edge">
<title>v14&#45;&gt;v8</title>
<path fill="none" stroke="black" d="M556.62,-173.51C545.34,-170.18 533.34,-167.01 522,-164.74 482.8,-156.88 373.28,-172.84 343,-146.74 316.96,-124.29 344.9,-99.05 324,-71.74 318.62,-64.71 311.78,-58.64 304.38,-53.45"/>
<polygon fill="black" stroke="black" points="306.38,-50.57 296.07,-48.15 302.62,-56.48 306.38,-50.57"/>
<text text-anchor="middle" x="399" y="-135.54" font-family="Times,serif" font-size="14.00">r15 &#45;&gt; r7</text>
<text text-anchor="middle" x="399" y="-120.54" font-family="Times,serif" font-size="14.00">cost = &#45;0.00,</text>
<text text-anchor="middle" x="399" y="-105.54" font-family="Times,serif" font-size="14.00">ϕ = &#45;0.00,</text>
<text text-anchor="middle" x="399" y="-90.54" font-family="Times,serif" font-size="14.00">ϕ xᵤ = [&#45;0.00 &#160;0.00],</text>
<text text-anchor="middle" x="399" y="-75.54" font-family="Times,serif" font-size="14.00">ϕ xᵥ = [&#45;0.00 &#45;0.00]</text>
</g>
<!-- v14&#45;&gt;v11 -->
<g id="edge32" class="edge">
<title>v14&#45;&gt;v11</title>
<path fill="none" stroke="black" d="M578.15,-216.05C572.09,-222.16 566.25,-229.11 562,-236.48 544.82,-266.27 561.91,-282.76 543,-311.48 536.72,-321.02 528.19,-329.58 519.23,-336.92"/>
<polygon fill="black" stroke="black" points="517.19,-334.08 511.39,-342.94 521.45,-339.63 517.19,-334.08"/>
<text text-anchor="middle" x="618" y="-300.28" font-family="Times,serif" font-size="14.00">r15 &#45;&gt; r11</text>
<text text-anchor="middle" x="618" y="-285.28" font-family="Times,serif" font-size="14.00">cost = &#45;0.00,</text>
<text text-anchor="middle" x="618" y="-270.28" font-family="Times,serif" font-size="14.00">ϕ = 0.00,</text>
<text text-anchor="middle" x="618" y="-255.28" font-family="Times,serif" font-size="14.00">ϕ xᵤ = [ 0.00 &#45;0.00],</text>
<text text-anchor="middle" x="618" y="-240.28" font-family="Times,serif" font-size="14.00">ϕ xᵥ = [&#45;0.00 &#45;0.00]</text>
</g>
<!-- v47 -->
<g id="node14" class="node">
<title>v47</title>
<ellipse fill="none" stroke="black" cx="877" cy="-191.61" rx="67.35" ry="26.74"/>
<text text-anchor="middle" x="877" y="-195.41" font-family="Times,serif" font-size="14.00">s0</text>
<text text-anchor="middle" x="877" y="-180.41" font-family="Times,serif" font-size="14.00"> x = [nan nan]</text>
</g>
<!-- v47&#45;&gt;v6 -->
<g id="edge33" class="edge">
<title>v47&#45;&gt;v6</title>
<path fill="none" stroke="black" d="M879.06,-164.4C879.7,-138.07 876.55,-97.76 855,-71.74 844.1,-58.58 828.74,-49.35 812.85,-42.89"/>
<polygon fill="black" stroke="black" points="814.39,-39.73 803.8,-39.55 811.97,-46.29 814.39,-39.73"/>
<text text-anchor="middle" x="932" y="-135.54" font-family="Times,serif" font-size="14.00">s0 &#45;&gt; r5</text>
<text text-anchor="middle" x="932" y="-120.54" font-family="Times,serif" font-size="14.00">cost = &#45;0.00,</text>
<text text-anchor="middle" x="932" y="-105.54" font-family="Times,serif" font-size="14.00">ϕ = 0.00,</text>
<text text-anchor="middle" x="932" y="-90.54" font-family="Times,serif" font-size="14.00">ϕ xᵤ = [0.00 0.00],</text>
<text text-anchor="middle" x="932" y="-75.54" font-family="Times,serif" font-size="14.00">ϕ xᵥ = [&#45;0.00 &#45;0.00]</text>
</g>
<!-- v49 -->
<g id="node15" class="node">
<title>v49</title>
<ellipse fill="none" stroke="black" cx="490" cy="-1573.31" rx="73.58" ry="26.74"/>
<text text-anchor="middle" x="490" y="-1577.11" font-family="Times,serif" font-size="14.00">s1</text>
<text text-anchor="middle" x="490" y="-1562.11" font-family="Times,serif" font-size="14.00"> x = [1.00 1.00]</text>
</g>
<!-- v49&#45;&gt;v12 -->
<g id="edge34" class="edge">
<title>v49&#45;&gt;v12</title>
<path fill="none" stroke="black" d="M482.33,-1546.52C476.26,-1520.52 471.67,-1480.47 491,-1453.44 501.96,-1438.12 518.71,-1428.11 536.41,-1421.58"/>
<polygon fill="black" stroke="black" points="537.07,-1425.05 545.48,-1418.6 534.88,-1418.4 537.07,-1425.05"/>
<text text-anchor="middle" x="542.5" y="-1517.24" font-family="Times,serif" font-size="14.00">s1 &#45;&gt; r12</text>
<text text-anchor="middle" x="542.5" y="-1502.24" font-family="Times,serif" font-size="14.00">cost = 0.00,</text>
<text text-anchor="middle" x="542.5" y="-1487.24" font-family="Times,serif" font-size="14.00">ϕ = 1.00,</text>
<text text-anchor="middle" x="542.5" y="-1472.24" font-family="Times,serif" font-size="14.00">ϕ xᵤ = [1.00 1.00],</text>
<text text-anchor="middle" x="542.5" y="-1457.24" font-family="Times,serif" font-size="14.00">ϕ xᵥ = [1.00 1.00]</text>
</g>
<!-- \n -->
<g id="node18" class="node">
<title>\n</title>
<ellipse fill="none" stroke="black" cx="1000" cy="-1738.05" rx="27" ry="18"/>
</g>
</g>
</svg>
